<svg width="87" height="18" viewBox="0 0 87 18" fill="none" xmlns="http://www.w3.org/2000/svg">
<path d="M13.344 17H11.376L11.016 15.464L10.152 12.824L6.696 12.752L3.576 12.824L2.64 15.368L2.256 17H0.336L5.976 1.616H8.208L13.344 17ZM9.624 11.192L7.128 3.608H6.96L4.176 11.192L6.864 11.24L9.624 11.192ZM15.915 12.344L15.843 6.128L17.691 5.96L17.643 12.176L17.691 17H15.819L15.915 12.344ZM16.803 1.088C17.123 1.088 17.379 1.184 17.571 1.376C17.763 1.568 17.859 1.832 17.859 2.168C17.859 2.52 17.755 2.8 17.547 3.008C17.355 3.216 17.083 3.32 16.731 3.32C16.395 3.32 16.131 3.224 15.939 3.032C15.763 2.84 15.675 2.568 15.675 2.216C15.675 1.88 15.771 1.608 15.963 1.4C16.171 1.192 16.451 1.088 16.803 1.088ZM24.6075 5.84C25.5195 5.84 26.3995 6.016 27.2475 6.368L26.9835 7.928L26.6955 8C25.8955 7.472 25.1275 7.208 24.3915 7.208C23.8475 7.208 23.4075 7.36 23.0715 7.664C22.7355 7.968 22.5675 8.336 22.5675 8.768C22.5675 9.2 22.7355 9.552 23.0715 9.824C23.4235 10.08 23.9595 10.376 24.6795 10.712C25.3035 11 25.7995 11.264 26.1675 11.504C26.5515 11.728 26.8795 12.032 27.1515 12.416C27.4235 12.8 27.5595 13.272 27.5595 13.832C27.5595 14.424 27.4075 14.976 27.1035 15.488C26.7995 16 26.3515 16.416 25.7595 16.736C25.1675 17.04 24.4635 17.192 23.6475 17.192C22.5275 17.192 21.4635 16.928 20.4555 16.4L20.6955 14.768L20.9115 14.624C21.3595 15.008 21.8395 15.304 22.3515 15.512C22.8795 15.72 23.3755 15.824 23.8395 15.824C24.4315 15.824 24.9115 15.664 25.2795 15.344C25.6475 15.008 25.8315 14.616 25.8315 14.168C25.8315 13.736 25.6555 13.392 25.3035 13.136C24.9675 12.864 24.4395 12.56 23.7195 12.224C23.0955 11.936 22.5915 11.68 22.2075 11.456C21.8235 11.216 21.4955 10.896 21.2235 10.496C20.9515 10.096 20.8155 9.6 20.8155 9.008C20.8155 8.08 21.1515 7.32 21.8235 6.728C22.5115 6.136 23.4395 5.84 24.6075 5.84ZM34.5943 5.816C36.0823 5.816 37.2343 6.304 38.0503 7.28C38.8823 8.24 39.2983 9.6 39.2983 11.36C39.2983 13.216 38.8663 14.656 38.0023 15.68C37.1383 16.688 35.9063 17.192 34.3063 17.192C32.8023 17.192 31.6343 16.712 30.8023 15.752C29.9863 14.776 29.5783 13.408 29.5783 11.648C29.5783 9.792 30.0103 8.36 30.8743 7.352C31.7543 6.328 32.9943 5.816 34.5943 5.816ZM34.4743 7.16C33.4663 7.16 32.6983 7.504 32.1703 8.192C31.6423 8.88 31.3783 9.888 31.3783 11.216C31.3783 12.752 31.6343 13.904 32.1463 14.672C32.6743 15.44 33.4343 15.824 34.4263 15.824C35.4343 15.824 36.2023 15.488 36.7303 14.816C37.2583 14.144 37.5223 13.136 37.5223 11.792C37.5223 10.272 37.2583 9.12 36.7303 8.336C36.2183 7.552 35.4663 7.16 34.4743 7.16ZM44.1514 12.176L44.2714 17H42.3754L42.5194 12.32L42.3994 0.319999L44.2954 0.151999L44.1514 12.176ZM61.266 15.512L61.122 17H52.482L52.602 12.368L52.482 1.616H61.146L61.242 1.808L61.098 3.296L57.474 3.224L54.426 3.272L54.378 8.312L57.258 8.36L59.802 8.288L59.946 8.456L59.778 9.944L57.09 9.896L54.354 9.92L54.33 12.2L54.402 15.392L57.45 15.416L61.146 15.32L61.266 15.512ZM70.3241 10.784C71.3801 12.528 72.7081 14.448 74.3081 16.544L74.2841 16.784C73.7081 17.008 73.1161 17.152 72.5081 17.216L72.2441 17.048C70.9321 15.08 69.7561 13.16 68.7161 11.288H65.9081V12.2L66.0041 17H64.0601L64.1801 12.368L64.0601 1.616L68.7641 1.592C70.2681 1.592 71.4281 1.976 72.2441 2.744C73.0761 3.496 73.4921 4.576 73.4921 5.984C73.4921 7.04 73.2121 7.992 72.6521 8.84C72.1081 9.672 71.3321 10.32 70.3241 10.784ZM65.9321 9.656L68.8121 9.728C70.6041 9.216 71.5001 8.024 71.5001 6.152C71.5001 5.176 71.2361 4.448 70.7081 3.968C70.1801 3.472 69.3881 3.208 68.3321 3.176L66.0041 3.248L65.9321 9.656ZM82.0766 1.592C83.5806 1.592 84.7406 1.984 85.5566 2.768C86.3726 3.536 86.7806 4.648 86.7806 6.104C86.7806 7.816 86.2686 9.16 85.2446 10.136C84.2366 11.112 82.8366 11.6 81.0446 11.6H79.2206V12.2L79.3166 17H77.3726L77.4926 12.368L77.3726 1.616L82.0766 1.592ZM81.7646 10.04C82.7566 9.88 83.5086 9.48 84.0206 8.84C84.5486 8.2 84.8126 7.344 84.8126 6.272C84.8126 4.288 83.7566 3.256 81.6446 3.176L79.3166 3.248L79.2446 9.992L81.7646 10.04Z" fill="white"/>
</svg>
